<?xml version="1.0" encoding="UTF-8" standalone="no"?>
<svg
   xmlns:dc="http://purl.org/dc/elements/1.1/"
   xmlns:cc="http://creativecommons.org/ns#"
   xmlns:rdf="http://www.w3.org/1999/02/22-rdf-syntax-ns#"
   xmlns:svg="http://www.w3.org/2000/svg"
   xmlns="http://www.w3.org/2000/svg"
   xmlns:sodipodi="http://sodipodi.sourceforge.net/DTD/sodipodi-0.dtd"
   xmlns:inkscape="http://www.inkscape.org/namespaces/inkscape"
   width="64"
   height="64"
   viewBox="0 0 16.933333 16.933334"
   version="1.1"
   id="svg8"
   inkscape:version="0.92.3 (2405546, 2018-03-11)"
   sodipodi:docname="23-Morale.svg"
   inkscape:export-filename="/home/wanzabuyumna/@WANZ_DESIGN/NICON STUDIO MAGANG/Style Line/Style Line/Icon 8/Icon 8.png"
   inkscape:export-xdpi="96"
   inkscape:export-ydpi="96">
  <defs
     id="defs2" />
  <sodipodi:namedview
     id="base"
     pagecolor="#ffffff"
     bordercolor="#959595"
     borderopacity="1"
     inkscape:pageopacity="0"
     inkscape:pageshadow="2"
     inkscape:zoom="11.2"
     inkscape:cx="27.11649"
     inkscape:cy="33.186454"
     inkscape:document-units="px"
     inkscape:current-layer="layer1"
     inkscape:document-rotation="0"
     showgrid="false"
     units="px"
     inkscape:window-width="1920"
     inkscape:window-height="1040"
     inkscape:window-x="0"
     inkscape:window-y="0"
     inkscape:window-maximized="1"
     inkscape:pagecheckerboard="0" />
  <metadata
     id="metadata5">
    <rdf:RDF>
      <cc:Work
         rdf:about="">
        <dc:format>image/svg+xml</dc:format>
        <dc:type
           rdf:resource="http://purl.org/dc/dcmitype/StillImage" />
      </cc:Work>
    </rdf:RDF>
  </metadata>
  <g
     inkscape:label="23-Morale"
     inkscape:groupmode="layer"
     id="layer1">
    <path
       style="color:#000000;font-style:normal;font-variant:normal;font-weight:normal;font-stretch:normal;font-size:medium;line-height:normal;font-family:sans-serif;font-variant-ligatures:normal;font-variant-position:normal;font-variant-caps:normal;font-variant-numeric:normal;font-variant-alternates:normal;font-feature-settings:normal;text-indent:0;text-align:start;text-decoration:none;text-decoration-line:none;text-decoration-style:solid;text-decoration-color:#000000;letter-spacing:normal;word-spacing:normal;text-transform:none;writing-mode:lr-tb;direction:ltr;text-orientation:mixed;dominant-baseline:auto;baseline-shift:baseline;text-anchor:start;white-space:normal;shape-padding:0;clip-rule:nonzero;display:inline;overflow:visible;visibility:visible;opacity:1;isolation:auto;mix-blend-mode:normal;color-interpolation:sRGB;color-interpolation-filters:linearRGB;solid-color:#000000;solid-opacity:1;vector-effect:none;fill:#000000;fill-opacity:1;fill-rule:nonzero;stroke:none;stroke-width:1.99999988;stroke-linecap:butt;stroke-linejoin:round;stroke-miterlimit:4;stroke-dasharray:none;stroke-dashoffset:0;stroke-opacity:1;color-rendering:auto;image-rendering:auto;shape-rendering:auto;text-rendering:auto;enable-background:accumulate"
       d="m 32,2 c -1.831597,0.002 -3.02425,0.1867026 -3.919922,0.6347656 -1.028599,0.5145827 -1.415121,1.2857561 -1.697266,1.9257813 -0.28233,0.6400252 -0.468792,1.1559176 -0.96875,1.7285156 -0.499956,0.5725984 -1.345919,1.2281394 -3.02539,1.9042969 -1.679509,0.6761574 -2.745567,0.7884956 -3.50586,0.7226562 -0.760327,-0.065764 -1.25719,-0.3114537 -1.90625,-0.5761718 -0.786973,-0.3208821 -1.556665,-0.5173049 -2.560546,-0.2050782 -1.003918,0.312567 -2.026126,1.0441148 -3.447266,2.4355464 -1.4211401,1.391474 -2.1781499,2.397531 -2.5097656,3.394532 -0.3575433,1.074898 -0.085196,1.911174 0.1699218,2.5625 0.2547404,0.651288 0.4919707,1.140503 0.5449219,1.896484 0.052913,0.756019 -0.082026,1.816557 -0.7890625,3.476563 C 8.2033483,22.326533 8.026479,22.678778 7.8515625,23 H 3.0039062 C 2.4514527,22.997884 2.0019276,23.44364 2,23.996094 v 15 C 1.9978457,39.551458 2.4485803,40.002117 3.0039062,40 h 4.2246094 c 0.3688819,0.499389 0.7545618,1.156466 1.15625,2.099609 0.7071118,1.660044 0.8420137,2.720582 0.7890625,3.476563 -0.052913,0.756019 -0.2899169,1.245158 -0.5449219,1.896484 -0.2547401,0.651288 -0.5273139,1.48764 -0.1699218,2.5625 0.3314645,0.996964 1.0886255,2.003096 2.5097656,3.394532 1.42114,1.391433 2.443348,2.123168 3.447266,2.435546 1.003881,0.312567 1.773573,0.116182 2.560546,-0.205078 0.64906,-0.264945 1.145923,-0.51037 1.90625,-0.576172 0.760293,-0.06576 1.826351,0.0465 3.50586,0.722657 1.679471,0.676195 2.525434,1.331696 3.02539,1.904297 0.499958,0.572598 0.68661,1.08849 0.96875,1.728515 0.282333,0.640063 0.668705,1.411236 1.697266,1.925781 C 28.97575,61.813335 30.168403,61.997997 32,62 c 1.831559,-0.002 3.024249,-0.186703 3.919922,-0.634766 1.028598,-0.514545 1.415084,-1.285718 1.697266,-1.925781 0.282334,-0.640025 0.468792,-1.155917 0.96875,-1.728515 0.499918,-0.572601 1.345919,-1.228102 3.02539,-1.904297 1.679509,-0.676158 2.74553,-0.788496 3.50586,-0.722657 0.760289,0.06576 1.257189,0.311454 1.90625,0.576172 0.786973,0.320882 1.556628,0.517343 2.560546,0.205078 1.003881,-0.312567 2.026126,-1.044113 3.447266,-2.435546 1.421178,-1.391436 2.178112,-2.397568 2.509766,-3.394532 0.357543,-1.07486 0.0852,-1.911212 -0.169922,-2.5625 -0.25474,-0.651326 -0.491971,-1.140465 -0.544922,-1.896484 -0.05291,-0.755981 0.08203,-1.816519 0.789062,-3.476563 0.401726,-0.94303 0.787331,-1.60022 1.15625,-2.099609 h 4.22461 C 61.55142,40.002101 62.002154,39.551458 62,38.996094 v -15 C 61.998103,23.44364 61.548547,22.997884 60.996094,23 h -4.847656 c -0.174995,-0.32126 -0.351862,-0.673467 -0.533204,-1.099609 -0.707111,-1.660006 -0.842013,-2.720544 -0.789062,-3.476563 0.05291,-0.755981 0.289879,-1.245196 0.544922,-1.896484 0.25474,-0.651326 0.527276,-1.487602 0.169922,-2.5625 C 55.209551,12.967843 54.452428,11.961786 53.03125,10.570312 51.61011,9.1788804 50.587865,8.4471814 49.583984,8.1347656 48.580066,7.8221987 47.810411,8.0185837 47.023438,8.3398438 46.374377,8.6047886 45.877477,8.8502141 45.117188,8.9160156 44.356858,8.9817794 43.290837,8.8695168 41.611328,8.1933594 39.931857,7.5172019 39.085856,6.8616609 38.585938,6.2890625 38.08598,5.7164645 37.899332,5.2005721 37.617188,4.5605469 37.335233,3.9205217 36.94852,3.1493483 35.919922,2.6347656 35.024249,2.1866648 33.831559,2.0020031 32,2 Z m 0,2.0058594 c 1.681152,0.00378 2.603203,0.2018424 3.027344,0.4140625 0.361701,0.1810393 0.521806,0.4055578 0.759765,0.9453125 0.238111,0.5397161 0.547117,1.3821167 1.292969,2.2363281 0.745855,0.8542488 1.901746,1.6928865 3.785156,2.4511715 1.883415,0.758325 3.298589,0.955312 4.429688,0.857422 1.131099,-0.09789 1.940174,-0.493199 2.488281,-0.716797 0.427918,-0.174614 0.734642,-0.2965949 1.210938,-0.148437 0.461404,0.12359 1.315408,0.665226 2.634765,1.957031 1.319358,1.291767 1.859569,2.122644 2.015625,2.591797 0.156095,0.46919 0.0036,0.851288 -0.132812,1.203125 -0.215055,0.549203 -0.600544,1.35606 -0.679688,2.486328 -0.07899,1.130268 0.14361,2.536932 0.9375,4.400391 0.05216,0.122456 0.10724,0.214424 0.160157,0.330078 -0.515871,0.03855 -0.927735,0.441197 -0.927735,1 -1.19588,-0.08466 -2.510278,-0.32053 -4.021484,-0.539063 C 45.757666,17.059314 39.184999,13.000668 32,13.001953 c -7.184996,-0.0013 -13.757666,4.057362 -16.980469,10.472656 -1.511169,0.218457 -2.825604,0.454288 -4.021484,0.539063 0,-0.558803 -0.411864,-0.961373 -0.927735,-1 0.05292,-0.116032 0.107999,-0.207622 0.160157,-0.330078 0.793776,-1.863459 1.016643,-3.270123 0.9375,-4.400391 -0.07899,-1.130268 -0.464746,-1.937125 -0.679688,-2.486328 -0.137575,-0.351874 -0.288907,-0.733935 -0.132812,-1.203125 0.156094,-0.469152 0.69623,-1.30003 2.015625,-2.591797 1.319358,-1.291805 2.17336,-1.833403 2.634765,-1.957031 0.476296,-0.1481579 0.783057,-0.02656 1.210938,0.148437 0.548144,0.223748 1.357182,0.61887 2.488281,0.716797 1.1311,0.09789 2.546273,-0.09902 4.429688,-0.857422 1.883413,-0.758285 3.039304,-1.5969227 3.785156,-2.4511715 0.745852,-0.8542114 1.05501,-1.696612 1.292969,-2.2363281 0.23811,-0.5397547 0.39814,-0.7643862 0.759765,-0.9453125 C 29.396833,4.2078904 30.318809,4.0111503 32,4.0058594 Z m 0,10.9960936 c 5.967198,8.31e-4 11.458389,3.127906 14.523438,8.166016 C 45.462483,23.068567 44.292825,23.001953 43,23.001953 c -5.3746,0 -8.098816,3.526723 -9.705078,5.841797 C 32.737064,29.225407 32.34012,29.618964 32,30.021484 31.659843,29.618964 31.262936,29.225407 30.705078,28.84375 29.098817,26.528676 26.374602,23.001953 21,23.001953 c -1.292825,0 -2.46252,0.067 -3.523438,0.166016 C 20.541574,18.129859 26.032806,15.002784 32,15.001953 Z m 0,2.001953 C 31.41731,17.015245 31,17.445846 31,18 v 2 c 0,0.666444 0.500157,1.001121 1,1.001953 C 32.499842,21.001121 33,20.666331 33,20 v -2 c 0,-0.554154 -0.417348,-0.985247 -1,-0.996094 z m -5.408203,1.583985 c -0.904025,-0.0076 -1.340835,1.089935 -0.716797,1.708984 l 1.417969,1.410156 c 0.986684,0.917556 2.33027,-0.464934 1.417969,-1.410156 l -1.417969,-1.417969 c -0.188221,-0.193512 -0.431162,-0.291015 -0.701172,-0.291015 z m 10.816406,0 c -0.269858,3.7e-5 -0.512913,0.0975 -0.701172,0.291015 l -1.417969,1.417969 c -0.912341,0.945222 0.431286,2.327674 1.417969,1.410156 L 38.125,20.296875 c 0.624076,-0.619011 0.18708,-1.715977 -0.716797,-1.708984 z M 21,25.001953 c 3.166073,1.8e-5 5.174478,1.478452 6.542969,3.021485 -2.563653,0.237732 -4.541016,2.493765 -4.541016,5.173828 -7.93e-4,0.622753 0.07236,1.222664 0.214844,1.800781 H 21 c -1.363276,-0.03024 -1.363276,2.030236 0,2 h 4.503906 c 0.848315,0 1.498047,0.688813 1.498047,1.498047 0,0.817024 -0.649732,1.505859 -1.498047,1.505859 -0.499994,0 -4.51818,-3.4e-5 -6.503906,0 -1.749997,0 -3.340724,-0.664629 -4.798828,-1.394531 -1.127169,-0.56428 -2.253443,-1.210369 -3.203125,-1.464844 V 26.013672 C 13.851175,25.84057 16.638387,25.001936 21,25.001953 Z m 22,0 c 4.361613,0 7.148826,0.838541 10.001953,1.011719 v 11.128906 c -0.949682,0.254362 -2.075956,0.900564 -3.203125,1.464844 -1.458104,0.729902 -3.048831,1.394531 -4.798828,1.394531 -1.985726,-3.4e-5 -6.003875,0 -6.503906,0 -0.84828,0 -1.498047,-0.688801 -1.498047,-1.505859 0,-0.809234 0.649767,-1.498047 1.498047,-1.498047 H 43 c 1.363238,0.03024 1.363238,-2.030274 0,-2 h -2.216797 c 0.142866,-0.578117 0.215978,-1.178028 0.214844,-1.800781 0,-2.680063 -1.97736,-4.935982 -4.541016,-5.173828 C 37.825487,26.480405 39.833928,25.001953 43,25.001953 Z M 10.970703,39.25 c 0.618142,0.253228 1.295243,0.626509 2.330078,1.144531 0.647017,0.323906 1.374152,0.65871 2.150391,0.939453 3.343446,5.934728 9.664154,9.668007 16.548828,9.667969 6.884641,-3.8e-5 13.205231,-3.733241 16.548828,-9.667969 0.776391,-0.280819 1.503373,-0.615547 2.150391,-0.939453 1.034834,-0.518022 1.711936,-0.891416 2.330078,-1.144531 0.144,0.484649 0.516227,0.748375 0.96875,0.75 h 0.408203 c -0.215811,0.393524 -0.428807,0.828318 -0.636719,1.316406 -0.793776,1.863421 -1.016643,3.270123 -0.9375,4.400391 0.07899,1.130268 0.464708,1.937125 0.679688,2.486328 0.137575,0.351874 0.288907,0.733934 0.132812,1.203125 -0.156094,0.469153 -0.696267,1.30003 -2.015625,2.591797 -1.319395,1.291767 -2.173361,1.833403 -2.634765,1.957031 -0.476296,0.148158 -0.783058,0.02656 -1.210938,-0.148437 -0.548145,-0.223748 -1.357182,-0.61887 -2.488281,-0.716797 -1.131099,-0.09789 -2.546273,0.09902 -4.429688,0.857422 -1.88341,0.758248 -3.039301,1.59692 -3.785156,2.451172 -0.745852,0.854211 -1.05501,1.696611 -1.292969,2.236328 -0.23811,0.539716 -0.39814,0.764424 -0.759765,0.945312 C 34.603204,59.79211 33.681436,59.988698 32,59.994141 30.318601,59.990361 29.396794,59.792336 28.972656,59.580078 28.610955,59.399039 28.45085,59.174482 28.212891,58.634766 27.97478,58.095049 27.665774,57.252649 26.919922,56.398438 26.17407,55.544186 25.01818,54.705514 23.134766,53.947266 c -1.883414,-0.758325 -3.298589,-0.955312 -4.429688,-0.857422 -1.131099,0.09789 -1.940174,0.4932 -2.488281,0.716797 -0.427918,0.174614 -0.734642,0.296595 -1.210938,0.148437 -0.461405,-0.12359 -1.315408,-0.665264 -2.634765,-1.957031 -1.319358,-1.291767 -1.859569,-2.122644 -2.015625,-2.591797 -0.156095,-0.469191 -0.0036,-0.851289 0.132812,-1.203125 0.215055,-0.549203 0.600544,-1.35606 0.679688,-2.486328 0.07899,-1.130268 -0.14361,-2.53697 -0.9375,-4.400391 C 10.022595,40.828318 9.8096366,40.393524 9.59375,40 h 0.408203 c 0.452523,-0.0016 0.824712,-0.265313 0.96875,-0.75 z m 16.664063,2.025391 c 2.016529,1.677392 3.923828,2.621093 3.923828,2.621093 0.139464,0.06954 0.289885,0.104713 0.441406,0.105469 0.151559,-6.05e-4 0.302017,-0.03782 0.441406,-0.105469 0,0 1.907298,-0.943701 3.923828,-2.621093 0.590741,0.456604 1.333452,0.728515 2.13086,0.728515 H 45 c 0.262677,0 0.520057,-0.01443 0.773438,-0.03711 -3.15122,4.356661 -8.262961,7.035156 -13.773438,7.035156 -5.510514,0 -10.622217,-2.678495 -13.773438,-7.035156 0.25323,0.02268 0.510761,0.03711 0.773438,0.03711 h 6.503906 c 0.797443,0 1.54012,-0.271759 2.13086,-0.728515 z"
       transform="scale(0.26458334)"
       id="path840"
       inkscape:connector-curvature="0"
       sodipodi:nodetypes="cccccccccccccccccccccccccccccccccccccccccccccccccccccccccccccccccccccccccccccccccccccccccccccccccccccccccccccccccccccccccccccccccccccccccccccccccccccccccccccccccccccccccccccccccccccccccccccccccccccccccc" />
  </g>
</svg>
